<svg xmlns="http://www.w3.org/2000/svg" viewBox="0 0 800 420" font-family="Segoe UI, sans-serif">
<rect width="800" height="420" fill="#ffffff" rx="8"/>
<text x="64" y="30" fill="#1f2328" font-size="17" font-weight="700">★ Star History — timoncool/Foundation-Music-Lab</text>
<text x="776" y="30" fill="#1f2328" font-size="14" text-anchor="end">18 stars · updated 2026-10-07</text>
<line x1="64" y1="364.0" x2="776" y2="364.0" stroke="#d1d9e0" stroke-width="1"/><text x="54" y="368.0" fill="#1f2328" font-size="13" text-anchor="end">0</text><line x1="64" y1="293.8" x2="776" y2="293.8" stroke="#d1d9e0" stroke-width="1"/><text x="54" y="297.8" fill="#1f2328" font-size="13" text-anchor="end">4</text><line x1="64" y1="206.0" x2="776" y2="206.0" stroke="#d1d9e0" stroke-width="1"/><text x="54" y="210.0" fill="#1f2328" font-size="13" text-anchor="end">9</text><line x1="64" y1="118.2" x2="776" y2="118.2" stroke="#d1d9e0" stroke-width="1"/><text x="54" y="122.2" fill="#1f2328" font-size="13" text-anchor="end">14</text><line x1="64" y1="48.0" x2="776" y2="48.0" stroke="#d1d9e0" stroke-width="1"/><text x="54" y="52.0" fill="#1f2328" font-size="13" text-anchor="end">18</text>
<path d="M64.0,364.0 L64.0,346.4 L68.7,328.9 L88.2,311.3 L170.5,293.8 L198.1,276.2 L232.6,258.7 L251.4,241.1 L281.5,223.6 L305.8,206.0 L335.6,188.4 L398.4,170.9 L449.7,153.3 L579.1,135.8 L597.2,118.2 L621.9,100.7 L622.3,83.1 L732.7,65.6 L742.0,48.0 L776.0,48.0" fill="none" stroke="#0969da" stroke-width="2.5" stroke-linejoin="round"/>
<circle cx="776.0" cy="48.0" r="4" fill="#0969da"/>
<text x="64.0" y="388" fill="#1f2328" font-size="13" text-anchor="middle">Mar 21, 2026</text><text x="301.3" y="388" fill="#1f2328" font-size="13" text-anchor="middle">May 27, 2026</text><text x="538.7" y="388" fill="#1f2328" font-size="13" text-anchor="middle">Aug 01, 2026</text><text x="776.0" y="388" fill="#1f2328" font-size="13" text-anchor="middle">Oct 07, 2026</text>
</svg>