<svg xmlns="http://www.w3.org/2000/svg" viewBox="0 0 800 420" font-family="Segoe UI, sans-serif">
<rect width="800" height="420" fill="#ffffff" rx="8"/>
<text x="64" y="30" fill="#1f2328" font-size="17" font-weight="700">★ Star History — timoncool/Foundation-Music-Lab</text>
<text x="776" y="30" fill="#1f2328" font-size="14" text-anchor="end">16 stars · updated 2026-09-07</text>
<line x1="64" y1="364.0" x2="776" y2="364.0" stroke="#d1d9e0" stroke-width="1"/><text x="54" y="368.0" fill="#1f2328" font-size="13" text-anchor="end">0</text><line x1="64" y1="285.0" x2="776" y2="285.0" stroke="#d1d9e0" stroke-width="1"/><text x="54" y="289.0" fill="#1f2328" font-size="13" text-anchor="end">4</text><line x1="64" y1="206.0" x2="776" y2="206.0" stroke="#d1d9e0" stroke-width="1"/><text x="54" y="210.0" fill="#1f2328" font-size="13" text-anchor="end">8</text><line x1="64" y1="127.0" x2="776" y2="127.0" stroke="#d1d9e0" stroke-width="1"/><text x="54" y="131.0" fill="#1f2328" font-size="13" text-anchor="end">12</text><line x1="64" y1="48.0" x2="776" y2="48.0" stroke="#d1d9e0" stroke-width="1"/><text x="54" y="52.0" fill="#1f2328" font-size="13" text-anchor="end">16</text>
<path d="M64.0,364.0 L64.0,344.2 L69.6,324.5 L92.5,304.8 L189.4,285.0 L221.9,265.2 L262.6,245.5 L284.7,225.8 L320.1,206.0 L348.7,186.2 L383.9,166.5 L457.8,146.8 L518.2,127.0 L670.6,107.2 L691.9,87.5 L721.0,67.8 L721.5,48.0 L776.0,48.0" fill="none" stroke="#0969da" stroke-width="2.5" stroke-linejoin="round"/>
<circle cx="776.0" cy="48.0" r="4" fill="#0969da"/>
<text x="64.0" y="388" fill="#1f2328" font-size="13" text-anchor="middle">Mar 21, 2026</text><text x="301.3" y="388" fill="#1f2328" font-size="13" text-anchor="middle">May 17, 2026</text><text x="538.7" y="388" fill="#1f2328" font-size="13" text-anchor="middle">Jul 12, 2026</text><text x="776.0" y="388" fill="#1f2328" font-size="13" text-anchor="middle">Sep 07, 2026</text>
</svg>